<?xml version="1.0" encoding="UTF-8" standalone="no"?><svg xmlns="http://www.w3.org/2000/svg" xmlns:xlink="http://www.w3.org/1999/xlink" fill="#000000" height="78.3" preserveAspectRatio="xMidYMid meet" version="1" viewBox="8.7 11.9 85.6 78.3" width="85.6" zoomAndPan="magnify"><g id="change1_1"><path d="M30.96,79.25c-3.53,0-7.55-1.15-9.75-4.46c-2.57-3.85-1.44-8.81-0.54-11.43c0.52-1.53,1.19-3.02,1.83-4.46 c0.88-1.97,1.78-4.01,2.32-6.11c0.91-3.58,0.38-6.5-1.76-9.78c-2-3.07-1.85-6.52-1.44-9.5c1.01-7.26,5.17-13.76,11.14-17.37l0,0 c1.88-1.14,6.73-3.57,11.05-1.41c2.04,1.02,3.46,2.84,4.83,4.6c1.4,1.79,2.72,3.48,4.62,4.38c2.06,0.96,4.36,0.8,6.8,0.63 c1.04-0.07,2.11-0.14,3.15-0.13c4.63,0.09,9.23,2.2,12.32,5.64c3.09,3.44,4.69,8.25,4.28,12.86c-0.12,1.33-0.4,2.67-0.66,3.96 c-0.48,2.33-0.94,4.53-0.55,6.74c0.4,2.21,1.64,4.22,2.85,6.16c0.32,0.52,0.65,1.04,0.96,1.56c2.04,3.46,2.62,6.34,1.79,8.8 c-1.22,3.58-5.09,5.16-8.03,5.42c-2.58,0.23-5.13-0.25-7.61-0.71c-0.7-0.13-1.4-0.26-2.1-0.38c-7.26-1.19-14.82-0.67-21.86,1.5 c-1.11,0.34-2.22,0.73-3.33,1.11c-2.77,0.96-5.63,1.96-8.61,2.28C32.11,79.22,31.54,79.25,30.96,79.25z M40,14.86 c-2.83,0-5.48,1.37-6.73,2.13l0,0c-5.71,3.46-9.69,9.69-10.66,16.66c-0.39,2.79-0.54,6.02,1.28,8.81 c2.28,3.49,2.86,6.75,1.89,10.58c-0.56,2.18-1.48,4.26-2.37,6.27c-0.63,1.42-1.29,2.9-1.8,4.38c-0.84,2.44-1.9,7.06,0.43,10.55 c2.32,3.48,6.95,4.31,10.51,3.93c2.87-0.31,5.68-1.29,8.39-2.23c1.12-0.39,2.23-0.78,3.36-1.13c7.18-2.22,14.9-2.74,22.31-1.53 c0.71,0.12,1.42,0.25,2.12,0.38c2.41,0.45,4.9,0.92,7.34,0.7c2.86-0.25,6.18-1.82,7.18-4.75c0.74-2.17,0.18-4.78-1.7-7.97 c-0.3-0.52-0.62-1.03-0.94-1.54c-1.26-2.02-2.56-4.11-2.99-6.51c-0.43-2.4,0.07-4.8,0.55-7.12c0.26-1.26,0.53-2.57,0.65-3.84 c0.38-4.34-1.12-8.86-4.03-12.1c-2.91-3.24-7.24-5.22-11.6-5.31c-1-0.02-2.05,0.05-3.07,0.12c-2.46,0.17-5,0.35-7.3-0.73 c-2.12-1-3.58-2.86-4.99-4.67c-1.37-1.75-2.65-3.4-4.49-4.32C42.26,15.07,41.11,14.86,40,14.86z" fill="#000000"/></g><g id="change2_1"><path d="M65.1,49.37c-2.68,0-5.37-0.44-8-1.48c-2.23-0.88-5.27-2.58-7.11-5.67c-1.71-2.87-1.86-6.41-0.39-9.02 c0.73-1.29,1.79-2.31,2.82-3.29c0.62-0.59,1.26-1.21,1.81-1.86c1.03-1.24,1.2-2.53,1.38-3.91c0.12-0.92,0.25-1.88,0.63-2.86 c0.97-2.5,3.57-5.17,5.58-6.6h0c2.53-1.8,6.65-2.8,9.69-0.75c1.44,0.97,2.38,2.43,3.29,3.85c0.76,1.18,1.48,2.3,2.47,3.16 c1.81,1.57,4.38,2.1,6.86,2.62c3.05,0.64,6.19,1.29,8.05,3.86c2.04,2.83,1.38,6.65-0.19,9.19c-1.67,2.7-4.33,4.57-6.96,6.18 C79.67,46.06,72.45,49.37,65.1,49.37z M62.41,15.49c-1.95,1.39-4.37,3.94-5.23,6.15c-0.34,0.87-0.46,1.77-0.57,2.63 c-0.19,1.46-0.39,2.96-1.6,4.42c-0.58,0.7-1.25,1.33-1.89,1.95c-1.02,0.98-1.99,1.9-2.64,3.06c-1.3,2.3-1.15,5.45,0.37,8.02 c1.69,2.85,4.53,4.43,6.62,5.26c9.46,3.74,19.93-0.67,27.05-5.04c2.52-1.55,5.07-3.33,6.63-5.85c1.39-2.25,2-5.62,0.23-8.08 c-1.63-2.25-4.45-2.84-7.44-3.46c-2.61-0.54-5.3-1.11-7.31-2.84c-1.1-0.95-1.89-2.19-2.66-3.38c-0.89-1.39-1.73-2.7-3-3.56 C68.31,12.96,64.67,13.88,62.41,15.49L62.41,15.49z" fill="#000000"/></g><g id="change2_2"><path d="M22.22,90.15c-2.35,0-4.77-0.79-6.8-2.32c-2.8-2.11-4.81-5.48-5.64-9.49c-1.12-5.38,1.69-17.43,7.73-22.43 c2.74-2.27,5.84-2.77,8.96-1.47l0,0c3.61,1.5,6.01,4.79,8.07,8.12l0.64,1.04c1.73,2.83,3.51,5.76,6.16,7.68 c0.78,0.56,1.64,1.05,2.48,1.52c1.01,0.57,2.06,1.15,3,1.9c1.69,1.34,3.27,3.64,2.65,6.08c-0.77,3.01-4.4,4.18-7.47,4 c-0.85-0.05-1.71-0.16-2.53-0.27c-2.02-0.27-3.93-0.52-5.74,0.05c-1.5,0.47-2.74,1.44-4.06,2.47c-1.06,0.83-2.16,1.69-3.42,2.27 C24.99,89.87,23.62,90.15,22.22,90.15z M23.09,54.73c-1.72,0-3.38,0.65-4.95,1.96c-5.78,4.78-8.47,16.31-7.39,21.45 c0.79,3.78,2.66,6.93,5.27,8.9c2.9,2.18,6.84,2.73,9.8,1.35c1.15-0.54,2.21-1.36,3.23-2.15c1.33-1.04,2.71-2.11,4.38-2.63 c2.02-0.63,4.13-0.35,6.17-0.08c0.81,0.11,1.65,0.22,2.46,0.27c2.67,0.15,5.81-0.79,6.44-3.25c0.5-1.97-0.93-3.95-2.3-5.04 c-0.87-0.69-1.84-1.24-2.86-1.81c-0.86-0.48-1.76-0.98-2.58-1.58c-2.81-2.04-4.65-5.05-6.42-7.97l-0.64-1.04 c-1.97-3.19-4.25-6.33-7.6-7.72C25.06,54.94,24.07,54.73,23.09,54.73z" fill="#000000"/></g></svg>